<svg xmlns="http://www.w3.org/2000/svg" width="122" height="119" fill="none" viewBox="0 0 122 119"><g clip-path="url(#a)"><path fill="#1E1E1E" fill-rule="evenodd" d="M11.284 88.485h.794v3.73h1.086v-3.73h.961v-.964h-.96c0-.67.083-.88.96-.88v-1.006h-.083c-1.421 0-1.964.545-1.964 1.886h-.794zm3.301 3.73h1.087v-2.514c0-.797.334-1.132.96-1.132.335 0 .502.084.67.168l.417-1.048a1.64 1.64 0 0 0-.835-.21c-.585 0-1.003.252-1.212.713v-.713h-1.087zm5.642-.88c-.794 0-1.421-.628-1.421-1.467 0-.796.627-1.467 1.42-1.467.795 0 1.422.629 1.422 1.467 0 .797-.627 1.467-1.421 1.467m-.167.964c.627 0 1.17-.251 1.546-.712v.629h1.087V87.52h-1.087v.545c-.334-.42-.878-.67-1.505-.67-1.17 0-2.34.88-2.34 2.472-.042 1.551 1.17 2.431 2.299 2.431m5.558-.964c-.794 0-1.42-.628-1.42-1.467 0-.796.626-1.467 1.42-1.467s1.42.629 1.42 1.467c0 .797-.626 1.467-1.42 1.467m1.337.797c0 .712-.501 1.341-1.337 1.341-.752 0-1.128-.293-1.463-.964l-.96.587c.417.796 1.17 1.341 2.423 1.341 1.588 0 2.424-1.09 2.424-2.39v-4.61h-1.087v.587a1.93 1.93 0 0 0-1.504-.713c-1.17 0-2.34.88-2.34 2.473 0 1.551 1.17 2.432 2.298 2.432a2.08 2.08 0 0 0 1.546-.713zm1.756.084h1.086V89.7c0-.797.334-1.132.961-1.132.293 0 .502.084.669.168l.418-1.048a1.64 1.64 0 0 0-.836-.21c-.585 0-1.003.252-1.212.713v-.713H28.71zm5.641-.88c-.794 0-1.42-.63-1.42-1.468 0-.796.626-1.467 1.42-1.467s1.421.629 1.421 1.467c0 .797-.585 1.467-1.42 1.467m-.167.963c.627 0 1.17-.251 1.546-.712v.629h1.087V87.52h-1.087v.545c-.334-.42-.877-.67-1.504-.67-1.17 0-2.34.88-2.34 2.472 0 1.551 1.17 2.431 2.298 2.431m3.26-.083h1.086v-2.6c0-.838.502-1.299 1.087-1.299.71 0 1.045.462 1.045 1.174v2.683h1.086v-2.809c0-1.3-.668-2.012-1.88-2.012-.627 0-1.087.252-1.421.671v-.587H37.36v4.779zm7.272.083c1.086 0 1.88-.628 2.256-1.467l-.96-.419c-.21.503-.67.88-1.255.88-.794 0-1.379-.628-1.379-1.425 0-.796.585-1.425 1.38-1.425.584 0 1.044.335 1.253.838l.961-.419c-.376-.838-1.17-1.467-2.256-1.467-1.38 0-2.424 1.09-2.424 2.473 0 1.342 1.044 2.431 2.424 2.431m4.93-3.94c.67 0 1.171.336 1.338.964h-2.674c.167-.586.668-.964 1.337-.964m.043 3.94c1.044 0 1.797-.503 2.173-1.257l-.878-.503c-.209.503-.71.838-1.295.838-.753 0-1.296-.46-1.463-1.131h3.803v-.42c0-1.383-1.003-2.43-2.424-2.43-1.379 0-2.424 1.089-2.424 2.472S48.185 92.3 49.69 92.3m4.597 0c1.337 0 1.922-.88 1.922-1.55 0-1.006-.878-1.258-1.672-1.426-.71-.167-1.086-.251-1.086-.544 0-.252.25-.504.752-.504.46 0 .794.21 1.003.545l.92-.46c-.377-.588-.962-.965-1.923-.965-1.128 0-1.839.67-1.839 1.425 0 1.006.836 1.258 1.63 1.426.585.125 1.087.21 1.087.544 0 .294-.251.587-.794.587-.502 0-.92-.251-1.129-.67l-1.003.503c.418.712 1.087 1.09 2.132 1.09m6.52-.964c-.795 0-1.213-.46-1.213-.964 0-.419.21-.67.544-.88.083.126.208.21.334.335l1.253 1.258a1.8 1.8 0 0 1-.919.251m2.047.88h1.504L63.188 91c.543-.713.878-1.55.878-2.305v-.503h-2.09v1.048h1.003c-.083.377-.25.754-.46 1.09l-1.128-1.132c-.752-.755-.961-.964-.961-1.425 0-.294.25-.545.585-.545s.502.21.627.503l1.045-.378c-.21-.587-.752-1.09-1.714-1.09-.96 0-1.671.671-1.671 1.51 0 .377.083.67.292.964-.585.335-1.003.922-1.003 1.634 0 .922.627 1.928 2.299 1.928.585 0 1.128-.21 1.588-.545zm6.227-.88c-.794 0-1.38-.67-1.38-1.467 0-.796.586-1.467 1.38-1.467s1.42.629 1.42 1.467c0 .797-.626 1.467-1.42 1.467m.167.964c1.128 0 2.298-.922 2.298-2.43 0-1.552-1.128-2.474-2.298-2.474-.627 0-1.212.294-1.546.713v-.629h-1.087v6.874h1.087V91.63c.334.46.92.67 1.546.67m5.098-3.94c.67 0 1.17.336 1.338.964h-2.675c.167-.586.669-.964 1.337-.964m.042 3.94c1.045 0 1.797-.503 2.173-1.257l-.877-.503c-.21.503-.71.838-1.296.838-.752 0-1.295-.46-1.463-1.131h3.803v-.42c0-1.383-1.002-2.43-2.423-2.43-1.38 0-2.424 1.089-2.424 2.472s1.003 2.431 2.507 2.431m2.842-.083h1.087V89.7c0-.797.334-1.132.96-1.132.293 0 .502.084.67.168l.417-1.048a1.64 1.64 0 0 0-.836-.21c-.585 0-1.002.252-1.211.713v-.713H77.23zm3.301-3.731h.795v3.73h1.086v-3.73h.961v-.964h-.96c0-.67.083-.88.96-.88v-1.006h-.083c-1.421 0-1.964.545-1.964 1.886h-.794zm7.523-.964h-1.087v2.599c0 .838-.46 1.3-1.044 1.3-.67 0-1.003-.462-1.003-1.174v-2.683h-1.087v2.808c0 1.3.669 2.012 1.797 2.012.585 0 1.045-.251 1.337-.629v.545h1.087zm.627 4.695h1.086v-2.6c0-.838.46-1.257 1.045-1.257.669 0 1.003.42 1.003 1.09v2.767h1.087v-2.641c0-.838.46-1.216 1.044-1.216.67 0 1.004.42 1.004 1.132v2.766h1.128v-2.85c0-1.215-.627-1.97-1.923-1.97-.668 0-1.212.335-1.546.797-.292-.503-.794-.797-1.546-.797-.585 0-1.045.252-1.337.629v-.545h-1.087v4.695zm10.322-3.857c.669 0 1.17.336 1.338.964h-2.675c.167-.586.71-.964 1.337-.964m.042 3.94c1.045 0 1.797-.503 2.173-1.257l-.877-.503c-.209.503-.71.838-1.296.838-.752 0-1.296-.46-1.463-1.131h3.803v-.42c0-1.383-1.003-2.43-2.424-2.43-1.379 0-2.424 1.089-2.424 2.472.042 1.383 1.045 2.431 2.508 2.431m2.842-.083h1.086V89.7c0-.797.335-1.132.962-1.132.292 0 .501.084.668.168l.418-1.048a1.64 1.64 0 0 0-.836-.21c-.585 0-1.003.252-1.212.713v-.713h-1.086zm4.221 2.18h1.086l2.8-6.875h-1.128l-1.254 3.186-1.295-3.186h-1.17l1.922 4.485zM29.964 61.993l-6.853-16.683c-.126-.21-.251-.46-.377-.712a9.4 9.4 0 0 0-1.295-1.97c-.543-.67-1.17-1.3-2.006-1.803a12.3 12.3 0 0 0-2.967-1.383c-1.254-.377-3.469-.964-4.765-.964l14.293 33.198-5.307 12.826h7.982c7.271-17.73 14.376-35.545 21.898-53.108-1.295 0-3.51.587-4.764.964a12.3 12.3 0 0 0-2.967 1.383 8.4 8.4 0 0 0-2.006 1.803c-.543.67-.961 1.341-1.296 1.97-.125.252-.25.461-.376.712-3.176 7.755-6.101 15.845-9.194 23.767M16.048 95.611h8.024c-3.218 7.796-6.436 15.551-9.529 23.347-.877-.88-2.006-2.808-2.59-3.94-.586-1.09-.878-2.054-1.087-2.976-.21-.922-.21-1.802-.126-2.599.376-3.521 3.845-10.27 5.308-13.832m47.307-50.803c5.851 0 10.615 4.779 10.615 10.647s-4.764 10.647-10.615 10.647c-5.85 0-10.615-4.779-10.615-10.647.042-5.868 4.765-10.647 10.615-10.647M.961 73.438H9.07v-25.57l-.042-.042c0-.125 0-.293-.042-.419a10 10 0 0 0-.418-2.347 9.2 9.2 0 0 0-1.17-2.431c-.585-.797-1.254-1.635-2.257-2.431-1.044-.839-2.925-2.264-4.137-2.767v36.006zm4.012-48.582a4.966 4.966 0 0 1 4.973 4.988 4.966 4.966 0 0 1-4.973 4.988C2.215 34.874 0 32.611 0 29.886c0-2.766 2.215-5.03 4.973-5.03m108.782 34.79h-19.6c1.63 3.815 5.391 6.498 9.821 6.498 4.388 0 8.15-2.683 9.779-6.497m.586-6.454a10.63 10.63 0 0 0-10.406-8.384h-.335c-2.925.084-5.516 1.342-7.397 3.312-1.086.754-2.633 1.215-4.388 1.215s-3.301-.46-4.388-1.215c2.8-6.33 9.11-10.73 16.424-10.73 9.946 0 18.012 8.089 18.012 18.065s-8.066 18.066-18.012 18.066-18.012-8.09-18.012-18.066c0-.754.042-1.509.125-2.221h28.377zM73.845 70.126c.334.335.752.67 1.17.922a12.3 12.3 0 0 0 2.967 1.383c1.254.377 3.469.964 4.764.964V16.982c-.041-1.215-.125-1.718-.46-2.934a10 10 0 0 0-1.17-2.557c-.543-.838-1.253-1.677-2.256-2.557a37 37 0 0 0-1.964-1.55c-.794-.588-1.588-1.09-2.215-1.384v35.413a17.86 17.86 0 0 0-11.326-4.024c-9.946 0-18.012 8.09-18.012 18.066s8.066 18.066 18.012 18.066c3.929-.042 7.523-1.258 10.49-3.395" clip-rule="evenodd"></path></g><defs><clipPath id="a"><path fill="#fff" d="M0 0h121.905v119H0z"></path></clipPath></defs></svg>