<?xml version="1.0" encoding="UTF-8" standalone="no"?>
<svg
   xmlns:dc="http://purl.org/dc/elements/1.1/"
   xmlns:cc="http://creativecommons.org/ns#"
   xmlns:rdf="http://www.w3.org/1999/02/22-rdf-syntax-ns#"
   xmlns:svg="http://www.w3.org/2000/svg"
   xmlns="http://www.w3.org/2000/svg"
   viewBox="0 0 377.952 152.97333"
   height="152.97333"
   width="377.952"
   xml:space="preserve"
   id="svg2"
   version="1.1"><metadata
     id="metadata8"><rdf:RDF><cc:Work
         rdf:about=""><dc:format>image/svg+xml</dc:format><dc:type
           rdf:resource="http://purl.org/dc/dcmitype/StillImage" /></cc:Work></rdf:RDF></metadata><defs
     id="defs6"><clipPath
       id="clipPath18"
       clipPathUnits="userSpaceOnUse"><path
         id="path16"
         d="M 0,114.73 H 283.464 V 0 H 0 Z" /></clipPath></defs><g
     transform="matrix(1.3333333,0,0,-1.3333333,0,152.97333)"
     id="g10"><g
       id="g12"><g
         clip-path="url(#clipPath18)"
         id="g14"><g
           transform="translate(15.4116,113.2939)"
           id="g20"><path
             id="path22"
             style="fill:#e4002b;fill-opacity:1;fill-rule:nonzero;stroke:none"
             d="m 0,0 c 8.423,-2.055 15.663,-10.727 15.663,-20.975 0,-21.422 -20.209,-25.332 -20.209,-37.896 0,-1.336 0.135,-2.295 0.504,-3.538 -5.063,0.712 -9.349,6.604 -9.349,13.39 0,17.41 15.18,20.792 15.18,38.911 C 1.789,-5.572 0,0 0,0" /></g><g
           transform="translate(35.8755,88.5264)"
           id="g24"><path
             id="path26"
             style="fill:#64a70b;fill-opacity:1;fill-rule:nonzero;stroke:none"
             d="m 0,0 c 4.193,-3.593 6.314,-9.075 6.314,-14.147 0,-18.315 -20.715,-20.528 -20.715,-27.536 0,-0.771 0.073,-1.232 0.254,-1.775 -3.295,1.245 -5.813,5.042 -5.813,8.594 0,11.202 17.132,14.072 19.96,34.864" /></g><g
           transform="translate(5.0542,107.4814)"
           id="g28"><path
             id="path30"
             style="fill:#00a3e0;fill-opacity:1;fill-rule:nonzero;stroke:none"
             d="m 0,0 c 0,0 1.012,-1.79 1.012,-3.793 0,-6.428 -6.067,-8.881 -6.067,-15.414 0,-3.076 1.671,-5.608 4.044,-7.075 0.069,0.547 0.115,1.085 0.253,1.514 1.423,4.543 8.084,9.571 8.084,16.678 C 7.326,-3.813 3.788,-0.32 0,0" /></g><g
           transform="translate(60.3169,56.0742)"
           id="g32"><path
             id="path34"
             style="fill:#000000;fill-opacity:1;fill-rule:nonzero;stroke:none"
             d="m 0,0 c 2.933,-2.643 5.717,-4.198 9.731,-4.198 2.219,0 6.28,0.937 6.28,3.868 0,1.697 -1.277,2.546 -3.775,2.971 L 5.245,3.776 c -6.23,0.994 -9.63,4.295 -9.63,9.25 0,8.119 6.561,11.473 13.739,11.473 5.575,0 11.05,-2.265 14.828,-6.462 l -6.377,-4.584 c -2.217,2.687 -5.477,4.25 -9.018,4.25 -1.935,0 -4.768,-1.229 -4.768,-3.4 0,-1.793 1.461,-2.695 4.672,-3.211 l 3.211,-0.52 c 6.705,-1.084 12.234,-3.162 12.234,-9.58 0,-10.106 -9.118,-11.998 -15.4,-11.998 -5.711,0 -11.074,1.851 -15.659,6.846 z" /></g><g
           transform="translate(105.1284,73.4946)"
           id="g36"><path
             id="path38"
             style="fill:#000000;fill-opacity:1;fill-rule:nonzero;stroke:none"
             d="m 0,0 c -4.913,0 -8.598,-3.118 -8.598,-10.665 0,-4.914 1.987,-10.674 8.598,-10.674 6.234,0 8.596,5.475 8.596,10.674 C 8.596,-5.386 6.234,0 0,0 m 0,-28.427 c -10.72,0 -17,8.316 -17,17.762 0,9.433 6.28,17.744 17,17.744 10.716,0 17.003,-8.311 17.003,-17.744 0,-9.446 -6.287,-17.762 -17.003,-17.762" /></g><g
           transform="translate(149.6035,68.4395)"
           id="g40"><path
             id="path42"
             style="fill:#000000;fill-opacity:1;fill-rule:nonzero;stroke:none"
             d="m 0,0 c -1.184,3.117 -4.064,5.052 -6.987,5.052 -4.633,0 -8.311,-3.118 -8.311,-10.662 0,-4.913 1.982,-10.674 8.592,-10.674 2.269,0 5.574,1.703 6.893,4.721 l 6.662,-3.211 c -2.884,-5.239 -7.887,-8.59 -13.555,-8.59 -10.721,0 -17.001,8.305 -17.001,17.754 0,9.433 5.856,17.744 16.339,17.744 6.611,0 10.955,-3.211 14.08,-8.782 z" /></g><g
           transform="translate(178.1768,57.5371)"
           id="g44"><path
             id="path46"
             style="fill:#000000;fill-opacity:1;fill-rule:nonzero;stroke:none"
             d="M 0,0 -4.156,13.879 H -4.25 L -8.402,0 Z M -8.642,22.094 H 0.053 L 12.75,-11.519 H 3.734 l -1.7,5.291 h -12.423 l -1.704,-5.291 h -8.968 z" /></g><g
           transform="translate(202.665,64.3408)"
           id="g48"><path
             id="path50"
             style="fill:#000000;fill-opacity:1;fill-rule:nonzero;stroke:none"
             d="m 0,0 h 7.697 c 2.695,0.042 4.486,1.407 4.486,4.525 0,3.122 -1.791,4.484 -4.486,4.533 H 0 Z M -8.405,15.29 H 8.403 c 7.563,0 12.188,-3.496 12.188,-11.047 0,-4.34 -2.739,-7.836 -6.948,-9.061 l 7.705,-13.505 H 11.944 L 5.338,-6.235 H 0 v -12.088 h -8.405 z" /></g><g
           transform="translate(104.3623,33.2715)"
           id="g52"><path
             id="path54"
             style="fill:#9d9d9d;fill-opacity:1;fill-rule:nonzero;stroke:none"
             d="m 0,0 c -4.827,0 -8.447,-3.061 -8.447,-10.477 0,-4.833 1.948,-10.498 8.447,-10.498 6.126,0 8.451,5.38 8.451,10.498 C 8.451,-5.291 6.126,0 0,0 m 0,-27.938 c -10.54,0 -16.708,8.173 -16.708,17.461 0,9.268 6.168,17.44 16.708,17.44 10.534,0 16.712,-8.172 16.712,-17.44 0,-9.288 -6.178,-17.461 -16.712,-17.461" /></g><g
           transform="translate(180.9258,39.3018)"
           id="g56"><path
             id="path58"
             style="fill:#9d9d9d;fill-opacity:1;fill-rule:nonzero;stroke:none"
             d="m 0,0 h 12.108 l 5.842,-24.538 h 0.087 L 24.074,0 H 36.033 V -33.016 H 28.244 V -7.381 H 28.15 L 21.614,-33.016 H 14.326 L 7.606,-7.381 H 7.516 V -33.016 H 0 Z" /></g><g
           transform="translate(258.458,24.0508)"
           id="g60"><path
             id="path62"
             style="fill:#9d9d9d;fill-opacity:1;fill-rule:nonzero;stroke:none"
             d="m 0,0 h 7.559 c 2.637,0.056 4.402,1.399 4.402,4.463 0,3.054 -1.765,4.393 -4.402,4.447 H 0 Z M -8.261,15.028 H 8.256 c 7.419,0 11.97,-3.427 11.97,-10.842 0,-4.273 -2.694,-7.706 -6.825,-8.911 l 7.561,-13.268 H 11.733 L 5.244,-6.116 H 0 v -11.877 h -8.261 z" /></g><g
           transform="translate(221.6484,6.2246)"
           id="g64"><path
             id="path66"
             style="fill:#9d9d9d;fill-opacity:1;fill-rule:nonzero;stroke:none"
             d="M 0,0 V 33.023 H 24.296 V 26.622 H 8.248 v -6.03 H 23.23 V 14.19 H 8.248 V 6.403 H 25.687 V 0 Z" /></g><g
           transform="translate(125.1592,6.3467)"
           id="g68"><path
             id="path70"
             style="fill:#9d9d9d;fill-opacity:1;fill-rule:nonzero;stroke:none"
             d="M 0,0 H 21.266 V 6.957 H 8.458 V 33.131 H 0 Z" /></g><g
           transform="translate(65.0352,33.1299)"
           id="g72"><path
             id="path74"
             style="fill:#9d9d9d;fill-opacity:1;fill-rule:nonzero;stroke:none"
             d="m 0,0 h 6.217 c 3.464,0 4.925,-1.784 4.925,-5.029 0,-2.515 -1.244,-4.942 -4.714,-4.942 H 0 Z M -8.354,-26.674 H 0 v 10.444 h 6.006 c 11.088,0 13.493,6.746 13.493,11.14 0,6.518 -3.21,11.127 -11.892,11.127 H -8.354 Z" /></g><g
           transform="translate(156.1738,6.3467)"
           id="g76"><path
             id="path78"
             style="fill:#9d9d9d;fill-opacity:1;fill-rule:nonzero;stroke:none"
             d="m 0,0 h 8.41 v 15.359 l 12.361,17.583 h -9.53 L 4.204,21.558 -2.836,32.942 h -9.531 L 0,15.359 Z" /></g></g></g></g></svg>